<svg role="img" xmlns="http://www.w3.org/2000/svg" viewBox="0 0 24 24" fill="#5865F2" width="48" height="48">
    <title>Discord</title>
    <path d="M20.317 4.369a19.791 19.791 0 0 0-4.885-1.515.074.074 0 0 0-.079.037c-.211.375-.444.864-.608 1.25a19.241 19.241 0 0 0-5.487 0 12.74 12.74 0 0 0-.617-1.264.077.077 0 0 0-.079-.037A19.629 19.629 0 0 0 3.677 4.37a.07.07 0 0 0-.032.027C.533 9.18-.319 13.793.099 18.333a.081.081 0 0 0 .031.055 19.784 19.784 0 0 0 5.993 3.04.078.078 0 0 0 .084-.028c.462-.63.873-1.295 1.226-1.987a.076.076 0 0 0-.041-.104 12.961 12.961 0 0 1-1.852-.9.078.078 0 0 1-.008-.13 9.588 9.588 0 0 0 .372-.29.074.074 0 0 1 .076-.01c3.876 1.774 8.073 1.774 11.924 0a.073.073 0 0 1 .078.009c.123.099.249.195.372.29a.078.078 0 0 1-.006.13 12.419 12.419 0 0 1-1.854.899.075.075 0 0 0-.04.105c.36.69.772 1.356 1.226 1.986a.077.077 0 0 0 .084.028 19.789 19.789 0 0 0 6.002-3.04.077.077 0 0 0 .031-.055c.5-5.022-.838-9.605-3.546-13.936a.06.06 0 0 0-.03-.028zm-11.23 9.217c-1.182 0-2.155-1.085-2.155-2.419 0-1.333.954-2.418 2.155-2.418 1.21 0 2.182 1.085 2.155 2.418 0 1.334-.954 2.419-2.155 2.419zm6.352 0c-1.182 0-2.155-1.085-2.155-2.419 0-1.333.953-2.418 2.155-2.418 1.21 0 2.182 1.085 2.155 2.418 0 1.334-.945 2.419-2.155 2.419Z"></path>
</svg>
