<svg role="img" xmlns="http://www.w3.org/2000/svg" viewBox="0 0 24 24" fill="#0A66C2" width="48" height="48">
    <title>LinkedIn</title>
    <path d="M20.451 20.451h-3.554v-5.385c0-1.283-.024-2.939-1.794-2.939-1.795 0-2.07 1.402-2.07 2.85v5.474h-3.554V9h3.414v1.561h.049c.477-.9 1.636-1.846 3.367-1.846 3.601 0 4.265 2.37 4.265 5.455v6.281zM5.337 7.433c-1.144 0-2.068-.926-2.068-2.068 0-1.142.924-2.068 2.068-2.068 1.141 0 2.068.926 2.068 2.068 0 1.142-.926 2.068-2.068 2.068zM6.837 20.451H3.837V9h3.085v11.451zM22.225 0H1.771C.792 0 .015.771.015 1.726v20.545C.015 23.229.792 24 1.771 24h20.451c.98 0 1.764-.771 1.764-1.729V1.726C23.989.771 23.205 0 22.225 0z"></path>
</svg>
